<svg width="156" height="156" viewBox="0 0 156 156" fill="none" xmlns="http://www.w3.org/2000/svg">
<path d="M153.84 61.8767C150.934 48.2309 144.401 35.6218 134.929 25.3787C125.456 15.1357 113.396 7.63812 100.018 3.67651C86.6408 -0.285094 72.4423 -0.563982 58.9197 2.86926C45.3971 6.3025 33.0513 13.3207 23.1839 23.1839C19.6638 26.7041 16.4863 30.551 13.6943 34.6726C12.8741 35.7691 12.1353 36.9242 11.4839 38.1286C6.05555 47.2145 2.54451 57.3153 1.16697 67.8092C-0.210563 78.3031 0.574569 88.9678 3.47402 99.1469C6.37347 109.326 11.3259 118.804 18.0263 126.997C24.7267 135.189 33.0332 141.924 42.4345 146.786C51.8357 151.647 62.1326 154.533 72.6912 155.265C83.2497 155.998 93.8464 154.561 103.829 151.043C113.811 147.526 122.968 142.002 130.735 134.813C138.502 127.623 144.715 118.92 148.992 109.238C149.456 108.278 149.865 107.291 150.216 106.284C153.735 97.2699 155.534 87.6764 155.52 77.9999C155.521 72.6508 154.974 67.3158 153.888 62.0783C153.874 62.0111 153.861 61.9439 153.84 61.8767ZM126.96 26.4311C127.406 26.8535 127.848 27.2855 128.285 27.7223C135.035 34.4505 140.36 42.4691 143.945 51.2999C144.025 51.4988 144.051 51.7158 144.02 51.9282C143.988 52.1405 143.9 52.3405 143.764 52.5072C143.629 52.6739 143.451 52.8012 143.25 52.8759C143.049 52.9506 142.831 52.9699 142.62 52.9318C140.346 52.5509 138.041 52.3902 135.737 52.4518C134.885 52.4695 134.054 52.1831 133.395 51.6438C132.735 51.1046 132.289 50.3479 132.137 49.5094C130.754 41.7575 128.755 34.5983 126.187 28.3486C126.041 27.9935 125.894 27.6407 125.743 27.2927C125.672 27.1321 125.659 26.9521 125.706 26.7831C125.753 26.614 125.856 26.4663 126 26.3649C126.143 26.2636 126.317 26.2148 126.492 26.2268C126.667 26.2389 126.832 26.311 126.96 26.4311ZM134.333 71.9087C134.328 71.732 134.381 71.5587 134.483 71.4141C134.584 71.2695 134.729 71.1614 134.897 71.1055C135.065 71.0496 135.246 71.049 135.414 71.1037C135.582 71.1584 135.728 71.2656 135.83 71.4095C136.411 72.2255 136.971 73.0447 137.51 73.8671C138.224 74.9614 138.888 76.0495 139.502 77.1311C139.689 77.4605 139.766 77.8405 139.723 78.2165C139.68 78.5925 139.518 78.9452 139.262 79.2239C138.432 80.1359 137.529 81.0799 136.553 82.0559C136.195 82.4135 135.833 82.7758 135.461 83.1286C135.357 83.2212 135.229 83.2819 135.092 83.3033C134.955 83.3248 134.814 83.3061 134.687 83.2496C134.561 83.193 134.453 83.101 134.377 82.9846C134.301 82.8681 134.261 82.7323 134.261 82.5935C134.307 81.4271 134.341 80.2559 134.362 79.0798C134.4 76.6702 134.388 74.2799 134.326 71.9087H134.333ZM36.7199 20.0879C48.755 11.4674 63.1961 6.8496 77.9999 6.88785C81.9212 6.88734 85.8359 7.20842 89.7047 7.84785C89.9335 7.88586 90.1464 7.98936 90.3176 8.14582C90.4888 8.30229 90.611 8.50501 90.6694 8.72947C90.7278 8.95393 90.7199 9.1905 90.6466 9.41056C90.5734 9.63063 90.438 9.82475 90.2567 9.96945C86.5439 12.8806 83.0927 17.1887 80.0399 22.7759C79.6791 23.4368 79.1047 23.9557 78.4106 24.2478C77.7166 24.5399 76.9439 24.5879 76.2191 24.3839C66.1031 21.5351 56.1479 20.1958 46.9511 20.5174C43.7232 20.6212 40.5074 20.9622 37.3295 21.5374C37.1503 21.5667 36.9665 21.5347 36.8077 21.4468C36.6489 21.3589 36.5242 21.2201 36.4538 21.0527C36.3835 20.8854 36.3714 20.6992 36.4197 20.5242C36.468 20.3492 36.5737 20.1955 36.7199 20.0879ZM26.5679 126.297C25.0751 123.477 27.0071 116.937 36.8207 107.016C37.0628 106.772 37.2506 106.479 37.3719 106.158C37.4933 105.836 37.5453 105.492 37.5247 105.149C37.5041 104.806 37.4113 104.471 37.2523 104.166C37.0934 103.861 36.8719 103.593 36.6023 103.38C36.2087 103.07 35.8199 102.758 35.4311 102.446C34.9602 102.064 34.3646 101.871 33.7592 101.902C33.1538 101.934 32.5815 102.188 32.1527 102.617L31.7687 103.003C26.8631 108.043 23.4311 112.699 21.5063 116.892C21.3799 117.16 21.1847 117.39 20.9406 117.559C20.6964 117.727 20.412 117.828 20.1163 117.851C19.8205 117.874 19.524 117.818 19.2568 117.689C18.9896 117.56 18.7613 117.363 18.5951 117.117C10.9243 105.516 6.85228 91.9059 6.8903 77.9975C6.88818 73.0108 7.40618 68.0375 8.4359 63.1583C8.46646 62.9993 8.54969 62.8553 8.67215 62.7494C8.79461 62.6436 8.94917 62.5821 9.11088 62.5749C9.27258 62.5677 9.432 62.6152 9.5634 62.7097C9.6948 62.8042 9.79051 62.9402 9.8351 63.0959C11.3087 67.9678 13.7111 73.0055 17.0351 78.0983C21.5015 84.9575 27.3911 91.5502 34.3703 97.5982C36.7535 99.6622 39.2711 101.659 41.8943 103.598C47.3608 107.603 53.1274 111.18 59.1431 114.3C61.8695 115.716 64.5239 117.067 67.2431 118.291C67.9912 118.63 68.7994 118.816 69.6204 118.838C70.4414 118.861 71.2586 118.719 72.0239 118.421C73.3039 117.917 74.5951 117.394 75.8975 116.853C76.5805 116.566 77.1379 116.043 77.4686 115.38C77.7992 114.717 77.8813 113.958 77.6999 113.239L77.5967 112.817C75.4559 103.807 74.2655 93.6623 74.1239 83.0398C74.1239 82.9127 74.1239 82.7831 74.1239 82.6559C74.1239 82.0751 74.1239 81.4919 74.1095 80.9111C74.1095 80.7262 74.1095 80.4143 74.1095 80.2271C74.1095 80.1551 74.1095 80.0807 74.1095 80.0087C74.1095 79.3438 74.1095 78.6814 74.1311 78.0143C74.1623 76.1903 74.2295 74.3807 74.3231 72.5879C74.9855 59.7695 77.1575 47.7214 80.6183 37.5886C80.7717 37.1386 80.74 36.6461 80.5303 36.2194C80.3205 35.7928 79.9499 35.4669 79.4999 35.3135C78.5847 34.9935 77.6711 34.6942 76.7591 34.4158C76.3154 34.277 75.8349 34.317 75.4202 34.5272C75.0055 34.7375 74.6893 35.1014 74.5391 35.5414C70.7903 46.5454 68.4791 59.6015 67.8599 73.4158C67.8227 74.2787 67.5707 75.1187 67.1269 75.8596C66.6831 76.6005 66.0615 77.219 65.3183 77.659C57.1367 82.5094 49.6223 87.6502 43.1303 92.8318C42.4734 93.3536 41.6549 93.6295 40.8162 93.612C39.9775 93.5944 39.1712 93.2846 38.5367 92.7359C32.0303 87.0959 26.5535 80.9759 22.4135 74.6111C14.2799 62.1167 12.3335 50.3494 16.9727 41.4911L17.0087 41.4286C17.5975 40.4494 18.2111 39.4838 18.8495 38.5318C24.1655 31.495 34.0607 27.4175 47.1695 26.9567C47.9999 26.9279 48.8367 26.9135 49.6799 26.9135C57.7295 26.9135 66.3671 28.2407 75.1535 30.7751L75.7319 30.9455L76.1759 31.0751C78.2063 31.6831 80.2415 32.3534 82.2815 33.0862L82.4255 33.139C82.9551 33.331 83.4855 33.5271 84.0167 33.727L84.5159 33.9167L84.9959 34.1014C89.3685 35.7954 93.6446 37.7287 97.8047 39.8927C105.725 43.9776 113.176 48.9139 120.026 54.6142C107.57 57.4678 93.0911 62.9735 78.5351 70.3967C78.2044 70.5645 77.9235 70.8162 77.7205 71.1265C77.5175 71.4369 77.3995 71.7952 77.3783 72.1655C77.3279 73.0679 77.2607 74.8822 77.2127 76.3246C77.2056 76.531 77.2529 76.7357 77.3498 76.918C77.4467 77.1004 77.5899 77.2541 77.7649 77.3637C77.9399 77.4733 78.1406 77.535 78.347 77.5426C78.5533 77.5502 78.7581 77.5035 78.9407 77.4071C93.3407 69.8399 107.741 64.183 120.091 61.1926C121.204 60.9221 122.177 60.2472 122.82 59.2993C123.463 58.3514 123.731 57.1982 123.571 56.0639C123.342 54.419 123.087 52.8014 122.806 51.211C122.459 49.2094 121.372 47.4116 119.76 46.1758C113.785 41.6405 107.432 37.6258 100.771 34.1758C96.2463 31.8217 91.5907 29.7279 86.8271 27.9046C86.5918 27.8147 86.3787 27.6752 86.202 27.4956C86.0254 27.316 85.8895 27.1006 85.8034 26.8638C85.7174 26.6271 85.6833 26.3747 85.7034 26.1236C85.7235 25.8725 85.7973 25.6287 85.9199 25.4086C90.7367 16.7879 96.4799 11.9686 102.053 11.9686H102.226C108.813 12.0863 115.38 18.943 120.245 30.7846C122.705 36.7846 124.613 43.6894 125.916 51.2014C125.91 51.1945 125.904 51.188 125.897 51.1823C126.453 54.3887 126.9 57.7006 127.234 61.099L127.145 61.1518L127.265 61.2718C127.825 67.1503 128.05 73.0558 127.939 78.9599C127.87 82.7999 127.666 86.5727 127.337 90.271C118.524 97.3919 107.63 104.479 95.6567 110.825C91.7207 112.91 87.7847 114.852 83.8967 116.64L83.7167 116.721L82.8215 117.132C79.5943 118.591 76.4039 119.939 73.2503 121.176L72.7175 121.38L72.0551 121.637C71.5271 121.84 71.0015 122.039 70.4783 122.234L70.0439 122.397C69.4079 122.637 68.7743 122.863 68.1431 123.089C68.0663 123.117 67.9871 123.149 67.9031 123.175C61.1639 125.575 54.7439 127.387 48.8927 128.515C34.7423 131.246 28.0799 129.158 26.5679 126.297ZM46.0535 98.6974C52.3199 93.595 59.6615 88.5047 67.7135 83.6855C67.8863 93.9863 69.0167 103.874 71.0159 112.807C68.0287 111.527 65.0567 110.124 62.0999 108.597C56.5118 105.702 51.1481 102.393 46.0535 98.6974ZM87.1727 148.519C84.1306 148.909 81.0668 149.105 77.9999 149.105C64.3856 149.142 51.0505 145.244 39.5999 137.88C39.4314 137.768 39.3024 137.607 39.2313 137.417C39.1602 137.228 39.1505 137.022 39.2037 136.827C39.2569 136.632 39.3702 136.459 39.5275 136.332C39.6848 136.205 39.8781 136.131 40.0799 136.121C40.2719 136.121 40.4519 136.104 40.6103 136.092C43.7911 135.866 46.9548 135.443 50.0831 134.825C57.3719 133.421 65.4743 131.016 73.9583 127.776C74.3247 127.638 74.7304 127.649 75.0889 127.806C75.4475 127.963 75.7307 128.253 75.8783 128.616V128.63C79.1663 136.634 83.2127 142.685 87.7559 146.532C87.9222 146.674 88.0438 146.861 88.1061 147.071C88.1684 147.281 88.1688 147.504 88.1072 147.714C88.0456 147.924 87.9246 148.112 87.7588 148.255C87.593 148.397 87.3895 148.489 87.1727 148.519ZM117.233 129.533C112.157 139.517 105.905 145.121 99.8447 145.008C93.2591 144.89 86.6903 138.033 81.8279 126.192C81.6802 125.83 81.6801 125.424 81.8277 125.062C81.9753 124.7 82.2588 124.411 82.6175 124.255L82.7735 124.188C83.0931 124.049 83.4507 124.024 83.7863 124.118C92.8823 126.672 101.846 128.004 110.246 128.004C111.158 128.004 112.064 127.989 112.963 127.958C114.014 127.92 115.049 127.861 116.066 127.781C116.279 127.767 116.492 127.809 116.683 127.904C116.875 127.999 117.038 128.142 117.156 128.32C117.274 128.497 117.344 128.703 117.357 128.916C117.37 129.129 117.328 129.342 117.233 129.533ZM119.422 120.945C117.204 121.263 114.971 121.459 112.733 121.533C106.729 121.7 100.724 121.217 94.8239 120.093C94.6586 120.063 94.5069 119.982 94.3904 119.861C94.2738 119.74 94.1983 119.585 94.1744 119.419C94.1505 119.252 94.1795 119.083 94.2573 118.934C94.3351 118.785 94.4577 118.664 94.6079 118.589C95.9583 117.907 97.3087 117.208 98.6591 116.491C107.703 111.729 116.403 106.34 124.694 100.363C124.823 100.27 124.977 100.217 125.136 100.211C125.296 100.206 125.453 100.248 125.588 100.332C125.723 100.416 125.83 100.539 125.895 100.684C125.961 100.829 125.981 100.991 125.954 101.148C124.967 107.263 123.489 113.289 121.534 119.167C121.38 119.63 121.101 120.04 120.729 120.354C120.356 120.668 119.903 120.873 119.422 120.945ZM129.917 126.585C129.382 127.157 128.834 127.723 128.277 128.265C127.317 129.235 126.326 130.172 125.304 131.076C125.168 131.196 124.995 131.266 124.814 131.274C124.632 131.282 124.454 131.227 124.308 131.12C124.162 131.012 124.058 130.857 124.012 130.681C123.967 130.505 123.983 130.319 124.058 130.154C124.162 129.933 124.266 129.71 124.368 129.485C124.792 128.545 125.204 127.585 125.604 126.605C125.651 126.49 125.724 126.388 125.817 126.307C125.911 126.226 126.022 126.168 126.142 126.137C127.15 125.879 128.132 125.597 129.089 125.289C129.257 125.23 129.44 125.229 129.609 125.287C129.777 125.345 129.921 125.459 130.017 125.609C130.113 125.759 130.155 125.937 130.137 126.115C130.119 126.292 130.041 126.458 129.917 126.585ZM144.206 104.025C143.865 104.896 143.507 105.759 143.131 106.615C143.074 106.733 143.018 106.855 142.956 106.968C140.611 111.482 136.678 115.034 131.422 117.509C131.158 117.634 130.864 117.681 130.575 117.643C130.286 117.606 130.013 117.487 129.79 117.299C129.566 117.112 129.402 116.864 129.315 116.585C129.229 116.306 129.224 116.009 129.302 115.728C131.117 109.128 132.428 102.4 133.224 95.6015C133.386 94.276 134.037 93.0585 135.048 92.1862C137.208 90.3167 139.229 88.4494 141.086 86.5943L141.105 86.5726C141.315 86.364 141.575 86.2131 141.86 86.1349C142.145 86.0566 142.446 86.0536 142.733 86.1261C143.019 86.1986 143.282 86.3442 143.496 86.5487C143.71 86.7531 143.867 87.0094 143.952 87.2926C145.785 93.3934 145.889 99.0743 144.206 104.028V104.025ZM145.63 70.7135C145.509 70.9326 145.334 71.1166 145.12 71.2473C144.907 71.378 144.664 71.4509 144.414 71.4589C144.164 71.4669 143.916 71.4097 143.695 71.2929C143.474 71.176 143.287 71.0036 143.153 70.7927L142.877 70.3631C140.68 67.0091 138.249 63.8155 135.6 60.8062C135.451 60.6348 135.355 60.4241 135.323 60.1995C135.29 59.9748 135.323 59.7456 135.418 59.5392C135.512 59.3327 135.664 59.1578 135.855 59.0352C136.046 58.9126 136.268 58.8476 136.495 58.8479H136.519C142.889 58.8479 146.227 60.4199 147.247 62.3423C148.08 63.9479 147.826 66.7582 145.63 70.7159V70.7135ZM149.071 80.1118C149.068 80.2136 149.031 80.3114 148.965 80.389C148.899 80.4666 148.808 80.5193 148.708 80.5383C148.608 80.5574 148.505 80.5417 148.415 80.4938C148.325 80.4459 148.254 80.3687 148.214 80.2751L147.974 79.7015C147.898 79.5291 147.869 79.3397 147.89 79.1524C147.911 78.9652 147.982 78.7869 148.094 78.6358L148.354 78.2951C148.665 77.8895 149.114 77.9495 149.114 78.4007C149.105 78.9935 149.09 79.507 149.071 80.1143V80.1118Z" fill="#7B2BF9"/>
</svg>
