<svg width="170" height="170" viewBox="0 0 180 170" fill="none" xmlns="http://www.w3.org/2000/svg">
<path d="M40.1288 119L20 154H157L136.871 119H40.1288Z" fill="white"/>
<path d="M89 34.9687L68.7876 0L0 119H40.4248L89 34.9687Z" fill="white"/>
<path d="M137.037 119H177L108.991 0L89 34.9706L137.037 119Z" fill="white"/>
<path d="M110 91.4538C110.009 95.9061 108.755 100.261 106.398 103.967C104.04 107.674 100.685 110.565 96.7568 112.275C92.8286 113.985 88.504 114.436 84.3303 113.573C80.1567 112.709 76.3216 110.569 73.3106 107.424C70.2996 104.278 68.2481 100.269 67.4156 95.9025C66.5831 91.5362 67.0072 87.0097 68.6342 82.8958C70.2611 78.7818 73.0178 75.2655 76.5552 72.7919C80.0927 70.3184 84.2518 68.9987 88.5062 69C94.1997 69.0017 99.66 71.3667 103.689 75.5761C107.719 79.7855 109.988 85.4956 110 91.4538Z" fill="white"/>
</svg>
